<svg width="335" height="335" viewBox="0 0 335 335" fill="none" xmlns="http://www.w3.org/2000/svg">
<path d="M269.967 76.68C266.952 76.68 264.061 77.8768 261.929 80.0073C259.797 82.1377 258.6 85.0271 258.6 88.04V188.576C253.289 185.983 247.46 184.624 241.55 184.6C233.682 184.6 225.99 186.932 219.448 191.301C212.905 195.67 207.806 201.879 204.795 209.145C201.784 216.41 200.996 224.404 202.531 232.117C204.066 239.829 207.855 246.914 213.419 252.475C218.983 258.035 226.071 261.822 233.789 263.356C241.506 264.89 249.505 264.103 256.774 261.093C264.044 258.084 270.257 252.988 274.629 246.449C279 239.911 281.333 232.224 281.333 224.36V88.04C281.333 85.0271 280.136 82.1377 278.004 80.0073C275.872 77.8768 272.981 76.68 269.967 76.68ZM241.55 241.4C238.178 241.4 234.881 240.401 232.077 238.528C229.274 236.656 227.088 233.995 225.798 230.881C224.507 227.767 224.17 224.341 224.828 221.036C225.485 217.73 227.109 214.694 229.494 212.311C231.878 209.928 234.916 208.305 238.224 207.647C241.531 206.99 244.959 207.327 248.075 208.617C251.19 209.907 253.853 212.091 255.727 214.893C257.6 217.695 258.6 220.99 258.6 224.36C258.6 228.879 256.804 233.213 253.606 236.409C250.409 239.605 246.072 241.4 241.55 241.4Z" fill="#18D860"/>
<path d="M224.5 93.72H65.3667C62.352 93.72 59.4609 92.5232 57.3292 90.3927C55.1976 88.2623 54 85.3729 54 82.36C54 79.3471 55.1976 76.4577 57.3292 74.3273C59.4609 72.1969 62.352 71 65.3667 71H224.5C227.515 71 230.406 72.1969 232.537 74.3273C234.669 76.4577 235.867 79.3471 235.867 82.36C235.867 85.3729 234.669 88.2623 232.537 90.3927C230.406 92.5232 227.515 93.72 224.5 93.72Z" fill="#18D860"/>
<path d="M201.767 150.52H65.3667C62.352 150.52 59.4609 149.323 57.3292 147.193C55.1976 145.062 54 142.173 54 139.16C54 136.147 55.1976 133.258 57.3292 131.127C59.4609 128.997 62.352 127.8 65.3667 127.8H201.767C204.781 127.8 207.672 128.997 209.804 131.127C211.936 133.258 213.133 136.147 213.133 139.16C213.133 142.173 211.936 145.062 209.804 147.193C207.672 149.323 204.781 150.52 201.767 150.52Z" fill="#18D860"/>
<path d="M167.667 207.32H65.3667C62.352 207.32 59.4609 206.123 57.3292 203.993C55.1976 201.862 54 198.973 54 195.96C54 192.947 55.1976 190.058 57.3292 187.927C59.4609 185.797 62.352 184.6 65.3667 184.6H167.667C170.681 184.6 173.572 185.797 175.704 187.927C177.836 190.058 179.033 192.947 179.033 195.96C179.033 198.973 177.836 201.862 175.704 203.993C173.572 206.123 170.681 207.32 167.667 207.32Z" fill="#18D860"/>
<path d="M167.667 264.12H65.3667C62.352 264.12 59.4609 262.923 57.3292 260.793C55.1976 258.662 54 255.773 54 252.76C54 249.747 55.1976 246.858 57.3292 244.727C59.4609 242.597 62.352 241.4 65.3667 241.4H167.667C170.681 241.4 173.572 242.597 175.704 244.727C177.836 246.858 179.033 249.747 179.033 252.76C179.033 255.773 177.836 258.662 175.704 260.793C173.572 262.923 170.681 264.12 167.667 264.12Z" fill="#18D860"/>
</svg>
