<svg width="335" height="335" viewBox="0 0 335 335" fill="none" xmlns="http://www.w3.org/2000/svg">
<path d="M256.904 100.193C253.053 100.193 250.012 103.234 250.012 107.086V250.214H107.086C103.234 250.214 100.193 253.255 100.193 257.107C100.193 260.959 103.234 264 107.086 264H256.904C260.756 264 263.797 260.959 263.797 257.107V106.883C263.797 103.234 260.756 100.193 256.904 100.193Z" fill="#18D860"/>
<path d="M234.604 227.711V77.8929C234.604 74.041 231.563 71 227.711 71H78.0956C74.2437 71 71.2028 74.041 71.2028 77.8929V227.711C71.2028 231.563 74.2437 234.604 78.0956 234.604H227.914C231.563 234.401 234.604 231.36 234.604 227.711ZM192.233 178.245C192.233 187.165 184.327 194.463 174.596 194.463C164.865 194.463 156.958 187.165 156.958 178.245C156.958 169.325 164.865 162.026 174.596 162.026C176.015 162.026 177.231 162.229 178.65 162.432V138.307L140.942 141.145V182.097C140.942 191.017 133.036 198.315 123.305 198.315C113.574 198.315 105.667 191.017 105.667 182.097C105.667 173.176 113.574 165.878 123.305 165.878C124.724 165.878 125.94 166.081 127.359 166.284V118.845C127.359 115.195 130.198 112.357 133.644 112.154L184.935 108.303C186.759 108.1 188.584 108.911 190.003 110.127C191.422 111.343 192.233 113.168 192.233 115.195V178.245V178.245Z" fill="#18D860"/>
</svg>
