<svg width="335" height="335" viewBox="0 0 335 335" fill="none" xmlns="http://www.w3.org/2000/svg">
<path d="M168.293 160.607C173.734 160.607 179.054 158.99 183.578 155.961C188.102 152.931 191.629 148.625 193.711 143.587C195.793 138.549 196.338 133.005 195.277 127.657C194.215 122.308 191.595 117.396 187.747 113.54C183.899 109.684 178.997 107.058 173.66 105.994C168.323 104.93 162.792 105.476 157.764 107.563C152.737 109.65 148.44 113.184 145.417 117.718C142.394 122.252 140.781 127.583 140.781 133.036C140.788 140.346 143.689 147.354 148.847 152.523C154.005 157.692 160.999 160.6 168.293 160.607V160.607ZM168.293 119.25C171.014 119.25 173.673 120.059 175.935 121.573C178.198 123.088 179.961 125.241 181.002 127.76C182.043 130.279 182.315 133.051 181.785 135.725C181.254 138.399 179.944 140.856 178.02 142.784C176.096 144.712 173.645 146.025 170.977 146.557C168.308 147.088 165.542 146.815 163.029 145.772C160.515 144.729 158.367 142.962 156.855 140.695C155.344 138.428 154.537 135.762 154.537 133.036C154.541 129.381 155.992 125.877 158.57 123.292C161.149 120.708 164.646 119.254 168.293 119.25Z" fill="#18D860"/>
<path d="M188.927 167.5H147.659C142.188 167.506 136.943 169.687 133.075 173.563C129.206 177.44 127.031 182.696 127.025 188.179V208.46C127.025 210.288 127.749 212.041 129.039 213.334C130.329 214.627 132.078 215.353 133.903 215.353C135.727 215.353 137.476 214.627 138.766 213.334C140.056 212.041 140.781 210.288 140.781 208.46V188.179C140.782 186.351 141.507 184.599 142.797 183.306C144.087 182.014 145.835 181.287 147.659 181.286H188.927C190.751 181.287 192.499 182.014 193.789 183.306C195.078 184.599 195.804 186.351 195.805 188.179V208.46C195.805 210.288 196.53 212.041 197.82 213.334C199.11 214.627 200.859 215.353 202.683 215.353C204.507 215.353 206.257 214.627 207.547 213.334C208.837 212.041 209.561 210.288 209.561 208.46V188.179C209.555 182.696 207.379 177.44 203.511 173.563C199.643 169.687 194.398 167.506 188.927 167.5V167.5Z" fill="#18D860"/>
<path d="M168.293 71C149.248 71 130.631 76.6596 114.795 87.2632C98.9602 97.8667 86.6181 112.938 79.3299 130.571C72.0417 148.204 70.1348 167.607 73.8503 186.326C77.5658 205.045 86.7368 222.24 100.204 235.736C113.67 249.232 130.828 258.422 149.507 262.146C168.186 265.869 187.547 263.958 205.143 256.654C222.738 249.35 237.777 236.982 248.358 221.112C258.938 205.243 264.586 186.586 264.586 167.5C264.557 141.915 254.403 117.387 236.351 99.296C218.298 81.205 193.823 71.0288 168.293 71V71ZM168.293 250.214C151.969 250.214 136.011 245.363 122.438 236.274C108.865 227.186 98.2859 214.267 92.0389 199.153C85.7919 184.039 84.1574 167.408 87.3421 151.363C90.5268 135.318 98.3877 120.58 109.931 109.012C121.474 97.4444 136.18 89.5666 152.191 86.375C168.201 83.1835 184.797 84.8215 199.878 91.082C214.96 97.3424 227.85 107.944 236.92 121.546C245.989 135.149 250.83 151.141 250.83 167.5C250.805 189.43 242.102 210.454 226.628 225.961C211.155 241.467 190.176 250.19 168.293 250.214V250.214Z" fill="#18D860"/>
</svg>
