<svg width="335" height="335" viewBox="0 0 335 335" fill="none" xmlns="http://www.w3.org/2000/svg">
<path d="M216 162.758C215.787 161.052 214.72 159.559 213.013 158.919C211.307 158.28 209.6 158.919 208.533 160.199C202.987 166.383 195.307 170.008 186.987 170.008C171.2 170.008 158.187 157 158.187 141.221C158.187 136.103 159.68 130.986 162.24 126.508C163.093 125.015 163.093 123.309 162.027 121.817C160.96 120.537 159.253 119.684 157.547 120.111C135.787 125.015 120 144.633 120 167.022C120 193.463 141.547 215 168 215C194.453 215 216 193.463 216 167.022C216 165.743 216 164.25 216 162.758ZM168 206.471C146.24 206.471 128.533 188.772 128.533 167.022C128.533 151.67 137.493 138.023 150.933 131.412C150.08 134.611 149.653 137.809 149.653 141.221C149.653 161.905 166.293 178.537 186.987 178.537C194.24 178.537 201.28 176.405 207.253 172.566C204.48 191.544 187.84 206.471 168 206.471Z" fill="#878787"/>
<path d="M234 167.5C234 131.443 204.332 102 168 102C131.668 102 102 131.443 102 167.5C102 203.557 131.668 233 168 233C204.332 233 234 203.557 234 167.5ZM168 224.466C136.397 224.466 110.599 198.863 110.599 167.5C110.599 136.137 136.397 110.534 168 110.534C199.603 110.534 225.401 136.137 225.401 167.5C225.401 198.863 199.603 224.466 168 224.466Z" fill="#878787"/>
<path d="M173 71H164V94H173V71Z" fill="#878787"/>
<path d="M173 241H164V264H173V241Z" fill="#878787"/>
<path d="M95 163H72V172H95V163Z" fill="#878787"/>
<path d="M113.368 216.529L97.2155 232.682L103.254 238.721L119.407 222.568L113.368 216.529Z" fill="#878787"/>
<path d="M103.23 96.286L97.1913 102.324L113.344 118.477L119.383 112.439L103.23 96.286Z" fill="#878787"/>
<path d="M264 163H241V172H264V163Z" fill="#878787"/>
<path d="M222.804 216.683L216.765 222.722L232.918 238.875L238.957 232.836L222.804 216.683Z" fill="#878787"/>
<path d="M232.894 96.1185L216.741 112.271L222.779 118.31L238.932 102.157L232.894 96.1185Z" fill="#878787"/>
</svg>
